<svg width="200" height="200" viewBox="0 0 200 200" fill="none" xmlns="http://www.w3.org/2000/svg">
<path d="M99.9999 0C44.7707 0 0 44.7257 0 99.9003C0 155.075 44.7707 199.801 99.9999 199.801C155.23 199.801 200 155.075 200 99.9003C200 44.727 155.228 0 99.9999 0ZM141.125 141.625L99.3421 165.765V165.774H99.3246L57.5153 141.625V58.0893L57.5585 58.1153L99.3075 34.0266L126.104 48.964H126.112V86.6752L113.074 79.1937V56.4805L99.3246 48.6528L70.5455 65.2767V134.524L99.3246 151.148L128.104 134.576L128.242 106.119L87.3506 82.4199L100.485 75.5175L141.229 99.2515L141.125 141.633V141.625ZM107.204 97.1845L117.273 102.971L87.3506 119.993V85.6721L97.8616 91.8649V102.166L107.212 97.1845H107.204Z" fill="#516FFA"/>
</svg>
