<svg width="200" height="200" viewBox="0 0 200 200" fill="none" xmlns="http://www.w3.org/2000/svg">
<circle cx="100" cy="100" r="100" fill="white"/>
<path d="M25 64.1923L62.5 42.5417L62.5 85.843L25 64.1923Z" fill="#0F2631"/>
<path d="M100 64.1923L62.5 85.843V42.5417L100 64.1923Z" fill="#2A3D58"/>
<path d="M137.308 85.7308L99.8077 107.381V64.0801L137.308 85.7308Z" fill="#2A3D58"/>
<path d="M62.3077 85.7308L99.8077 64.0801V107.381L62.3077 85.7308Z" fill="#0F2631"/>
<path d="M175 64L137.5 85.6506V42.3494L175 64Z" fill="#2A3D58"/>
<path d="M100 64.1923L137.5 42.5417V85.843L100 64.1923Z" fill="#0F2631"/>
<path d="M25 124.961L62.5 103.311L62.5 146.612L25 124.961Z" fill="#0F2631"/>
<path d="M100 124.962L62.5 146.612V103.311L100 124.962Z" fill="#2A3D58"/>
<path d="M137.308 146.5L99.8077 168.151V124.849L137.308 146.5Z" fill="#2A3D58"/>
<path d="M62.3077 146.5L99.8077 124.849V168.151L62.3077 146.5Z" fill="#0F2631"/>
<path d="M175 124.769L137.5 146.42V103.119L175 124.769Z" fill="#2A3D58"/>
<path d="M100 124.961L137.5 103.311V146.612L100 124.961Z" fill="#0F2631"/>
</svg>
