<svg width="200" height="200" viewBox="0 0 200 200" fill="none" xmlns="http://www.w3.org/2000/svg">
<circle cx="100" cy="100" r="100" fill="white"/>
<path d="M97.3872 80.596V18.7778C97.3872 18.7778 77.3535 28.7374 77.3535 49.9159C77.3535 71.0943 97.3872 80.596 97.3872 80.596Z" fill="#006E3C"/>
<path d="M97.3872 18.7778C97.3872 18.7778 117.421 28.7374 117.421 49.9159C117.421 71.0943 97.3872 80.596 97.3872 80.596V18.7778Z" fill="#00B43C"/>
<path d="M143.98 109.559L171.455 93.9899C171.455 93.9899 161.953 87.5791 152.566 92.9596C143.178 98.34 143.98 109.559 143.98 109.559Z" fill="#006E3C"/>
<path d="M171.455 93.9899C171.455 93.9899 172.027 105.438 162.64 110.704C153.252 116.084 143.98 109.559 143.98 109.559L171.455 93.9899Z" fill="#00B43C"/>
<path d="M172.828 91.4714C172.37 91.2424 160.808 85.0606 150.963 90.7845C143.064 95.3636 141.576 104.407 141.232 108.185L137.569 110.246C135.737 108.529 133.333 107.384 130.586 107.384C127.838 107.384 125.434 108.414 123.603 110.246L107.118 100.63C107.347 99.8283 107.461 99.0269 107.461 98.2256C107.461 93.6465 104.37 89.7542 100.249 88.6094V82.6566C105.057 79.5657 120.397 68.2323 120.397 50.2593C120.397 29.4242 99.7913 16.4882 98.8754 15.9158L97.3872 15L95.899 15.9158C94.9832 16.4882 74.3771 29.4242 74.3771 50.2593C74.3771 68.2323 89.7172 79.4512 94.5253 82.6566V88.6094C90.2896 89.7542 87.3131 93.6465 87.3131 98.2256C87.3131 99.0269 87.4276 99.8283 87.6566 100.63L71.0572 110.246C69.2256 108.529 66.8216 107.384 64.0741 107.384C58.5791 107.384 54 111.848 54 117.458C54 122.037 57.0909 125.929 61.2121 127.074V146.993C57.0909 148.253 54 152.03 54 156.609C54 162.104 58.4646 166.683 64.0741 166.683C67.0505 166.683 69.6835 165.424 71.5152 163.364L87.6566 172.636C87.4276 173.438 87.3131 174.239 87.3131 175.04C87.3131 180.535 91.7778 185 97.3872 185C102.882 185 107.461 180.535 107.461 175.04C107.461 174.239 107.347 173.438 107.118 172.636L123.259 163.364C125.091 165.424 127.724 166.683 130.7 166.683C136.195 166.683 140.774 162.219 140.774 156.609C140.774 152.03 137.684 148.138 133.562 146.993V127.074C137.684 125.815 140.774 122.037 140.774 117.458C140.774 116.657 140.66 115.855 140.545 115.168L144.209 113.108C146.269 114.138 150.505 115.741 155.199 115.741C158.061 115.741 161.152 115.168 164.128 113.451C173.859 107.842 174.431 94.6768 174.431 94.2189V92.5017L172.828 91.4714ZM133.448 120.892C132.646 121.465 131.731 121.808 130.7 121.808C130.128 121.808 129.67 121.694 129.098 121.465C128.64 121.35 128.296 121.121 127.953 120.778C127.037 120.091 126.465 119.061 126.236 117.916C126.236 117.687 126.236 117.458 126.236 117.229C126.236 117 126.236 116.886 126.236 116.657C126.465 115.054 127.495 113.68 128.983 113.108C129.441 112.879 130.013 112.764 130.586 112.764C131.158 112.764 131.845 112.879 132.303 113.108C133.906 113.795 135.051 115.397 135.051 117.229C135.051 117.458 135.051 117.687 134.936 117.916C134.822 119.29 134.249 120.205 133.448 120.892ZM135.051 156.609C135.051 159.128 132.99 161.074 130.586 161.074C129.785 161.074 128.869 160.845 128.296 160.387C127.037 159.586 126.121 158.212 126.121 156.609V156.495C126.121 156.037 126.236 155.579 126.35 155.121C126.579 154.32 127.152 153.633 127.838 153.061C128.411 152.603 129.098 152.259 129.785 152.145C130.013 152.145 130.242 152.03 130.586 152.03C131.616 152.03 132.646 152.374 133.333 152.946C134.478 153.862 135.051 155.121 135.051 156.609ZM127.838 146.993C126.465 147.337 125.205 148.024 124.175 148.939L107.232 139.094C107.347 138.407 107.461 137.835 107.461 137.148C107.461 136.232 107.347 135.202 107.003 134.401L123.717 124.67C124.862 125.815 126.236 126.616 127.838 127.074V146.993ZM97.3872 179.505C95.0976 179.505 93.266 177.902 92.9226 175.727C92.9226 175.498 92.9226 175.269 92.9226 175.04C92.9226 173.209 94.0673 171.606 95.67 170.919C96.2424 170.69 96.8148 170.576 97.3872 170.576C97.9596 170.576 98.532 170.69 99.1044 170.919C100.707 171.606 101.852 173.209 101.852 175.04C101.852 175.269 101.852 175.498 101.852 175.727C101.508 177.788 99.5623 179.505 97.3872 179.505ZM87.5421 139.094L70.5993 148.939C69.569 148.024 68.3098 147.337 66.936 146.993V127.074C68.5387 126.616 69.9125 125.815 71.0572 124.67L87.771 134.286C87.5421 135.202 87.3131 136.118 87.3131 137.148C87.3131 137.835 87.4276 138.522 87.5421 139.094ZM68.6532 156.609C68.6532 158.212 67.8519 159.586 66.4781 160.387C65.7912 160.845 64.9899 161.074 64.1886 161.074C61.67 161.074 59.7239 159.013 59.7239 156.609C59.7239 155.236 60.4108 153.862 61.4411 153.061C62.2424 152.488 63.1582 152.145 64.1886 152.145C64.4175 152.145 64.7609 152.145 64.9899 152.259C65.7912 152.374 66.3636 152.717 66.936 153.175C67.6229 153.633 68.0808 154.434 68.4242 155.236C68.5387 155.694 68.6532 156.152 68.6532 156.609C68.6532 156.495 68.6532 156.495 68.6532 156.609ZM59.6094 117.458C59.6094 114.939 61.67 112.993 64.0741 112.993C64.6465 112.993 65.2189 113.108 65.6768 113.337C67.165 113.909 68.1953 115.283 68.4242 116.886C68.4242 117.114 68.4242 117.343 68.4242 117.572C68.4242 117.801 68.4242 118.03 68.4242 118.259C68.3098 119.404 67.6229 120.434 66.7071 121.121C66.3636 121.35 66.0202 121.579 65.5623 121.808C65.1044 122.037 64.532 122.152 63.9596 122.152C62.9293 122.152 61.899 121.808 61.2121 121.236C60.2963 120.091 59.6094 118.832 59.6094 117.458ZM94.6397 94.6768C95.4411 94.1044 96.3569 93.7609 97.3872 93.7609C98.4175 93.7609 99.4478 94.1044 100.135 94.6768C101.051 95.3636 101.623 96.3939 101.737 97.5387C101.737 97.7677 101.737 97.9966 101.737 98.2256C101.737 99.5993 101.051 100.973 100.02 101.774C99.6768 102.003 99.3333 102.232 98.8754 102.461C98.4175 102.69 97.8451 102.805 97.2727 102.805C96.7003 102.805 96.128 102.69 95.67 102.461C95.2121 102.347 94.8687 102.118 94.5253 101.774C93.495 100.973 92.8081 99.7138 92.8081 98.2256C92.8081 97.9966 92.8081 97.7677 92.8081 97.5387C93.1515 96.3939 93.7239 95.3636 94.6397 94.6768ZM101.852 137.263C101.852 138.636 101.165 139.781 100.135 140.582C99.9057 140.697 99.6768 140.926 99.4478 141.04C98.7609 141.384 98.0741 141.613 97.2727 141.613C96.4714 141.613 95.7845 141.384 95.2121 141.04C94.9832 140.926 94.7542 140.811 94.5253 140.582C93.495 139.781 92.8081 138.522 92.8081 137.148V137.034C92.8081 136.576 92.8081 136.232 92.9226 135.889C93.1515 134.973 93.7239 134.172 94.4108 133.485C94.8687 133.141 95.4411 132.798 96.1279 132.684C96.4714 132.569 96.8148 132.569 97.2727 132.569C97.7306 132.569 98.0741 132.569 98.4175 132.684C98.9899 132.798 99.5623 133.141 100.02 133.485C100.707 134.057 101.279 134.859 101.508 135.774C101.623 136.118 101.623 136.576 101.623 137.034C101.852 137.148 101.852 137.263 101.852 137.263ZM120.855 115.054C120.626 115.855 120.512 116.657 120.512 117.458C120.512 118.259 120.626 119.175 120.855 119.976L104.027 129.707C102.882 128.677 101.623 127.99 100.135 127.532V107.842C101.737 107.384 103.111 106.582 104.256 105.438L120.855 115.054ZM79.9865 50.3737C79.9865 35.6061 92.9226 24.9596 97.3872 21.7542C101.852 24.9596 114.788 35.6061 114.788 50.3737C114.788 62.7374 105.63 71.6667 100.135 75.9024V52.5488C100.135 51.0606 98.8754 49.8013 97.3872 49.8013C95.7845 49.8013 94.6397 51.0606 94.6397 52.5488V75.9024C89.0303 71.6667 79.9865 62.7374 79.9865 50.3737ZM90.404 105.438C91.5488 106.582 93.037 107.384 94.5253 107.842V127.532C93.037 127.99 91.7778 128.677 90.633 129.593L73.6902 119.862C73.9192 119.061 74.0337 118.259 74.0337 117.458C74.0337 116.657 73.9192 115.855 73.6902 115.054L90.404 105.438ZM74.0337 158.327C74.1481 157.754 74.1482 157.182 74.1482 156.609C74.1482 155.579 74.0337 154.549 73.6902 153.519L90.1751 144.017C91.3199 145.276 92.9226 146.192 94.6397 146.764V165.424C93.037 165.882 91.6633 166.683 90.404 167.828L74.0337 158.327ZM104.37 167.828C103.226 166.683 101.737 165.882 100.135 165.424V146.764C101.852 146.306 103.455 145.276 104.599 144.017L121.084 153.519C120.741 154.434 120.626 155.465 120.626 156.609C120.626 157.182 120.626 157.754 120.741 158.327L104.37 167.828ZM161.152 108.529C157.488 110.589 153.367 110.246 150.162 109.444L155.657 106.239C157.03 105.438 157.488 103.835 156.687 102.461C155.886 101.088 154.283 100.63 152.909 101.431L147.414 104.636C148.215 101.545 150.047 97.7677 153.71 95.5926C158.976 92.5017 165.502 94.4478 168.478 95.7071C168.02 98.798 166.532 105.438 161.152 108.529Z" fill="black"/>
</svg>
