<svg width="2048" height="318" viewBox="0 0 2048 318" fill="none" xmlns="http://www.w3.org/2000/svg">
<path d="M717.991 187.432C717.991 205.782 714.534 219.463 707.645 228.579C700.723 237.656 689.139 242.201 672.925 242.201C656.679 242.201 645.127 237.656 638.205 228.579C631.29 219.463 627.826 205.691 627.826 187.218V111.475H611.391V187.218C611.391 233.951 631.902 257.302 672.925 257.302C714.098 257.302 734.674 234.016 734.674 187.432V111.475H717.991V187.432Z" fill="#002C69"/>
<path d="M829.591 111.478H813.378V255.728H884.139L886.398 240.843H829.591V111.478Z" fill="#002C69"/>
<path d="M973.844 119.261C961.889 125.629 952.499 134.459 945.675 145.73C938.818 157.008 935.419 169.55 935.419 183.387C935.419 204.575 942.895 222.215 957.839 236.332C972.789 250.475 991.451 257.521 1013.84 257.521C1028.42 257.521 1042.85 253.471 1057.12 245.351V229.137C1044.36 238.305 1030 242.876 1014.06 242.876C996.485 242.876 981.749 237.166 969.892 225.764C958.028 214.336 952.096 200.219 952.096 183.387C952.096 166.711 958.06 152.685 970.015 141.348C981.971 130.011 996.635 124.327 1014.06 124.327C1029.69 124.327 1044.05 128.996 1057.12 138.288V121.611C1042.54 113.674 1028.11 109.689 1013.84 109.689C999.109 109.689 985.793 112.866 973.844 119.261Z" fill="#002C69"/>
<path d="M1108.69 255.682H1127.98L1143.17 226.582L1150.13 212.98L1189.98 136.13L1230.15 212.98L1237.11 226.582L1251.98 255.682H1270.32L1189.98 106.379L1108.69 255.682Z" fill="#002C69"/>
<path d="M1435.6 166.925L1332.37 107.429V255.729H1348.37V133.559L1435.6 183.607V255.729H1451.82V111.479H1435.6V166.925Z" fill="#002C69"/>
<path d="M472.549 231.172L409.445 111.477H391.187L472.763 262.708L553.233 111.477H535.437L472.549 231.172Z" fill="#002C69"/>
<path d="M1538.15 111.478H1532.74V255.728H1600.37L1601.04 250.539H1538.15V111.478Z" fill="#002C69"/>
<path d="M1668.53 255.727H1673.94V111.476H1668.53V255.727Z" fill="#002C69"/>
<path d="M1859.8 170.969L1754.99 108.543V255.73H1760.39V117.346L1859.8 176.621V255.73H1865.2V111.479H1859.8V170.969Z" fill="#002C69"/>
<path d="M1962.35 171.433L2040.56 111.475H2032.68L1955.15 171.218L2040.77 255.725H2048L1962.35 171.433Z" fill="#002C69"/>
<path d="M1945.45 255.727H1950.86V111.476H1945.45V255.727Z" fill="#002C69"/>
<path d="M196.802 129.82C207.488 129.82 216.148 121.159 216.148 110.474C216.148 99.795 207.488 91.1346 196.802 91.1346C186.117 91.1346 177.457 99.795 177.457 110.474C177.457 121.159 186.117 129.82 196.802 129.82Z" fill="#FA4706"/>
<path d="M257.104 117.814C266.22 117.814 273.618 110.424 273.618 101.308C273.618 92.1849 266.22 84.7943 257.104 84.7943C247.988 84.7943 240.597 92.1849 240.597 101.308C240.597 110.424 247.988 117.814 257.104 117.814Z" fill="#FA4706"/>
<path d="M59.9961 117.814C69.1123 117.814 76.5094 110.424 76.5094 101.308C76.5094 92.1849 69.1123 84.7943 59.9961 84.7943C50.8799 84.7943 43.4893 92.1849 43.4893 101.308C43.4893 110.424 50.8799 117.814 59.9961 117.814Z" fill="#FA4706"/>
<path d="M189.134 18.675C194.291 18.675 198.471 14.4946 198.471 9.33746C198.471 4.1803 194.291 -0.000127226 189.134 -0.000127226C183.977 -0.000127226 179.79 4.1803 179.79 9.33746C179.79 14.4946 183.977 18.675 189.134 18.675Z" fill="#FA4706"/>
<path d="M120.298 91.1317C109.613 91.1317 100.952 99.7921 100.952 110.478C100.952 121.157 109.613 129.817 120.298 129.817C130.984 129.817 139.644 121.157 139.644 110.478C139.644 99.7921 130.984 91.1317 120.298 91.1317Z" fill="#FA4706"/>
<path d="M99.2885 62.4243C106.087 62.4243 111.602 56.909 111.602 50.1109C111.602 43.3064 106.087 37.7976 99.2885 37.7976C92.4904 37.7976 86.9751 43.3064 86.9751 50.1109C86.9751 56.909 92.4904 62.4243 99.2885 62.4243Z" fill="#FA4706"/>
<path d="M219.021 62.4243C225.819 62.4243 231.334 56.909 231.334 50.1109C231.334 43.3064 225.819 37.7976 219.021 37.7976C212.223 37.7976 206.707 43.3064 206.707 50.1109C206.707 56.909 212.223 62.4243 219.021 62.4243Z" fill="#FA4706"/>
<path d="M127.971 18.675C133.128 18.675 137.308 14.4946 137.308 9.33746C137.308 4.1803 133.128 -0.000127226 127.971 -0.000127226C122.813 -0.000127226 118.633 4.1803 118.633 9.33746C118.633 14.4946 122.813 18.675 127.971 18.675Z" fill="#FA4706"/>
<path d="M158.551 73.1234C166.697 73.1234 173.306 66.5142 173.306 58.3682C173.306 50.2157 166.697 43.613 158.551 43.613C150.405 43.613 143.795 50.2157 143.795 58.3682C143.795 66.5142 150.405 73.1234 158.551 73.1234Z" fill="#FA4706"/>
<path d="M59.9964 193.356C47.4747 193.356 37.3167 203.514 37.3167 216.036C37.3167 228.564 47.4747 238.715 59.9964 238.715C72.5247 238.715 82.6762 228.564 82.6762 216.036C82.6762 203.514 72.5247 193.356 59.9964 193.356Z" fill="#FA4706"/>
<path d="M99.2886 248.888C89.1566 248.888 80.9456 257.1 80.9456 267.232C80.9456 277.364 89.1566 285.575 99.2886 285.575C109.421 285.575 117.632 277.364 117.632 267.232C117.632 257.1 109.421 248.888 99.2886 248.888Z" fill="#FA4706"/>
<path d="M127.971 298.666C122.813 298.666 118.633 302.846 118.633 308.004C118.633 313.161 122.813 317.341 127.971 317.341C133.128 317.341 137.308 313.161 137.308 308.004C137.308 302.846 133.128 298.666 127.971 298.666Z" fill="#FA4706"/>
<path d="M257.105 193.356C244.583 193.356 234.425 203.514 234.425 216.036C234.425 228.564 244.583 238.715 257.105 238.715C269.633 238.715 279.784 228.564 279.784 216.036C279.784 203.514 269.633 193.356 257.105 193.356Z" fill="#FA4706"/>
<path d="M217.815 248.888C207.683 248.888 199.472 257.1 199.472 267.232C199.472 277.364 207.683 285.575 217.815 285.575C227.947 285.575 236.159 277.364 236.159 267.232C236.159 257.1 227.947 248.888 217.815 248.888Z" fill="#FA4706"/>
<path d="M189.134 298.666C183.977 298.666 179.79 302.846 179.79 308.004C179.79 313.161 183.977 317.341 189.134 317.341C194.291 317.341 198.471 313.161 198.471 308.004C198.471 302.846 194.291 298.666 189.134 298.666Z" fill="#FA4706"/>
<path d="M297.588 139.158C286.812 139.158 278.08 147.896 278.08 158.673C278.08 169.443 286.812 178.181 297.588 178.181C308.365 178.181 317.097 169.443 317.097 158.673C317.097 147.896 308.365 139.158 297.588 139.158Z" fill="#FA4706"/>
<path d="M19.5152 139.158C8.73852 139.158 0 147.896 0 158.673C0 169.443 8.73852 178.181 19.5152 178.181C30.2918 178.181 39.0238 169.443 39.0238 158.673C39.0238 147.896 30.2918 139.158 19.5152 139.158Z" fill="#FA4706"/>
<path d="M179.903 232.845C183.452 228.156 189.156 225.578 195.01 226.125C197.198 226.326 199.49 226.164 201.834 225.558C208.756 223.78 214.232 218.05 215.704 211.057C216.667 206.473 216.003 202.097 214.187 198.385C212.201 194.342 212.669 189.536 215.391 185.935L218.152 182.282C220.581 179.072 224.533 177.633 228.545 177.952C229.958 178.063 231.41 178.024 232.888 177.815C241.327 176.637 248.17 169.708 249.264 161.256C250.99 147.94 239.158 136.825 225.66 139.82C218.426 141.422 212.643 147.341 211.159 154.602C210.026 160.156 211.282 165.398 214.076 169.5C217.026 173.843 217.071 179.515 213.907 183.702C211.074 187.446 206.275 189.367 201.743 188.162C199.431 187.55 196.957 187.355 194.391 187.667C185.887 188.709 178.881 195.527 177.663 204.005C177.103 207.892 177.709 211.597 179.18 214.827C181.857 220.726 180.632 227.681 176.725 232.845L173.808 236.699C170.214 241.453 164.594 244.24 158.636 244.22H158.552H158.467C152.906 244.233 147.684 241.55 144.454 237.025L139.518 230.11C136.276 225.565 135.807 219.678 138.04 214.56C139.343 211.578 139.916 208.211 139.518 204.669C138.594 196.282 132.043 189.263 123.728 187.817C121.755 187.472 119.827 187.433 117.978 187.661C113.179 188.24 108.406 186.482 105.593 182.543L105.059 181.794C102.487 178.186 101.803 171.896 103.946 168.028C106.062 164.206 106.921 159.602 105.971 154.758C104.538 147.439 98.7429 141.442 91.463 139.82C77.3915 136.688 65.1237 148.878 68.119 162.936C69.6167 169.949 75.1711 175.673 82.1319 177.405C84.8082 178.069 87.4258 178.167 89.8807 177.796C94.823 177.053 99.7978 178.779 102.695 182.842L102.832 183.038C105.743 187.127 106.303 192.636 103.711 196.933C101.53 200.554 100.501 204.936 101.146 209.598C102.305 218.063 109.246 224.946 117.724 226.04C119.652 226.287 121.527 226.255 123.324 225.968C129.015 225.076 134.68 227.687 138.027 232.376L142.872 239.18C145.997 243.556 146.388 249.123 144.61 254.196C143.712 256.735 143.51 259.594 144.233 262.589C145.509 267.864 149.813 272.142 155.107 273.34C164.751 275.515 173.307 268.248 173.307 258.975C173.307 257.341 173.033 255.778 172.545 254.32C170.741 249.006 172.128 243.126 175.514 238.653L179.903 232.845Z" fill="#FA4706"/>
</svg>
